<svg width="97" height="48" viewBox="0 0 97 48" fill="none" xmlns="http://www.w3.org/2000/svg">
<path d="M32.3373 18H35.0373L29.7873 0.499999H27.1623L21.9123 18H24.6123L25.9373 13.45H31.0123L32.3373 18ZM26.6873 10.85L28.4873 4.675L30.2623 10.85H26.6873ZM46.659 0.499999H36.959V18H39.609V11.55H46.659C47.634 11.55 48.459 10.8 48.459 9.9V2.15C48.459 1.25 47.634 0.499999 46.659 0.499999ZM45.809 8.5C45.809 8.775 45.559 9 45.309 9H39.609V3.05H45.309C45.559 3.05 45.809 3.275 45.809 3.55V8.5ZM62.2627 3.05V0.499999H50.7627V18H62.2627V15.45H53.4127V10.525H59.6127V7.975H53.4127V3.05H62.2627ZM75.7111 0.499999H72.7111L69.7611 6.3L66.8111 0.499999H63.8361L68.2861 9.25L63.8361 18H66.8111L69.7611 12.2L72.7111 18H75.7111L71.2611 9.25L75.7111 0.499999ZM2.99277 45.45V30.5H0.342773V48H11.8428V45.45H2.99277ZM25.2559 33.05V30.5H13.7559V48H25.2559V45.45H16.4059V40.525H22.6059V37.975H16.4059V33.05H25.2559ZM37.4793 30.5H29.5793C28.6043 30.5 27.7793 31.25 27.7793 32.15V46.35C27.7793 47.25 28.6043 48 29.5793 48H37.4793C38.4543 48 39.2793 47.25 39.2793 46.35V37.975H33.6543V40.525H36.6293V44.95C36.6293 45.225 36.3793 45.45 36.1293 45.45H30.9293C30.6793 45.45 30.4293 45.225 30.4293 44.95V33.55C30.4293 33.275 30.6793 33.05 30.9293 33.05H36.1293C36.3793 33.05 36.6293 33.275 36.6293 33.55V34.8H39.2793V32.15C39.2793 31.25 38.4543 30.5 37.4793 30.5ZM53.6445 33.05V30.5H42.1445V48H53.6445V45.45H44.7945V40.525H50.9945V37.975H44.7945V33.05H53.6445ZM65.268 30.5V43.1L59.093 30.5H56.168V48H58.818V35.55L64.918 48H67.918V30.5H65.268ZM80.5018 30.5H70.8018V48H80.5018C81.4768 48 82.3018 47.25 82.3018 46.35V32.15C82.3018 31.25 81.4768 30.5 80.5018 30.5ZM79.6518 44.95C79.6518 45.225 79.4018 45.45 79.1518 45.45H73.4518V33.05H79.1518C79.4018 33.05 79.6518 33.275 79.6518 33.55V44.95ZM94.867 30.5H86.967C85.992 30.5 85.167 31.25 85.167 32.15V38.875C85.167 39.775 85.992 40.525 86.967 40.525H93.517C93.767 40.525 94.017 40.75 94.017 41.025V44.95C94.017 45.225 93.767 45.45 93.517 45.45H88.317C88.067 45.45 87.817 45.225 87.817 44.95V43.7H85.167V46.35C85.167 47.25 85.992 48 86.967 48H94.867C95.842 48 96.667 47.25 96.667 46.35V39.625C96.667 38.725 95.842 37.975 94.867 37.975H88.317C88.067 37.975 87.817 37.75 87.817 37.475V33.55C87.817 33.275 88.067 33.05 88.317 33.05H93.517C93.767 33.05 94.017 33.275 94.017 33.55V34.8H96.667V32.15C96.667 31.25 95.842 30.5 94.867 30.5Z" fill="white"/>
</svg>
