<svg width="58" height="52" viewBox="0 0 58 52" fill="none" xmlns="http://www.w3.org/2000/svg">
<path fill-rule="evenodd" clip-rule="evenodd" d="M44.6602 12.4163V12.4163C43.6241 12.4163 42.6852 11.819 42.2436 10.8857C41.4464 9.19681 40.4325 7.03848 39.8325 5.86348C38.9464 4.11626 37.5102 3.09959 35.5214 3.0857C35.488 3.08292 22.5102 3.08292 22.4769 3.0857C20.488 3.09959 19.0547 4.11626 18.1658 5.86348C17.5686 7.03848 16.5547 9.19681 15.7575 10.8857C15.3158 11.819 14.3741 12.4163 13.3408 12.4163V12.4163C7.79635 12.4163 3.30469 16.9079 3.30469 22.4496V38.9385C3.30469 44.4774 7.79635 48.9718 13.3408 48.9718H44.6602C50.2019 48.9718 54.6936 44.4774 54.6936 38.9385V22.4496C54.6936 16.9079 50.2019 12.4163 44.6602 12.4163Z" stroke="#006B96" stroke-width="5" stroke-linecap="round" stroke-linejoin="round"/>
<path fill-rule="evenodd" clip-rule="evenodd" d="M20.1702 29.7068C20.1674 34.5763 24.1424 38.5596 29.0035 38.5568C33.8563 38.5513 37.8202 34.5846 37.8285 29.7263C37.8369 24.8485 33.8758 20.8735 29.0091 20.8679C24.1146 20.8624 20.1313 24.904 20.1702 29.7068Z" stroke="#006B96" stroke-width="5" stroke-linecap="round" stroke-linejoin="round"/>
<path d="M42.6178 23.2085C42.3494 23.181 42.0844 23.111 41.7875 22.9915C41.4572 22.8448 41.1714 22.6581 40.8949 22.3773C40.3984 21.8491 40.1108 21.1584 40.1108 20.4458C40.1108 20.0672 40.1882 19.6921 40.3394 19.3522C40.4908 19.0079 40.6703 18.7174 40.9947 18.4015C41.2414 18.1866 41.4942 18.0137 41.8397 17.8614C42.8645 17.4554 44.0833 17.698 44.8451 18.4594C45.0734 18.6844 45.2657 18.9558 45.3724 19.1847L45.4356 19.347C45.589 19.6921 45.6664 20.0672 45.6664 20.4458C45.6664 21.1728 45.3825 21.8452 44.8557 22.4049C44.4003 22.8633 43.8022 23.1452 43.1642 23.2086L42.8886 23.2222L42.6178 23.2085Z" fill="#006B96"/>
</svg>
