<svg width="27" height="29" viewBox="0 0 27 29" fill="none" xmlns="http://www.w3.org/2000/svg">
<path fill-rule="evenodd" clip-rule="evenodd" d="M19.8426 8.59113V8.59113C19.4229 8.59113 19.0427 8.33134 18.8638 7.92534C18.5409 7.19067 18.1303 6.2518 17.8873 5.74067C17.5284 4.98063 16.9468 4.53838 16.1413 4.53234C16.1278 4.53113 10.8718 4.53113 10.8583 4.53234C10.0528 4.53838 9.4723 4.98063 9.1123 5.74067C8.87043 6.2518 8.4598 7.19067 8.13693 7.92534C7.95805 8.33134 7.57668 8.59113 7.15818 8.59113V8.59113C4.91268 8.59113 3.09355 10.545 3.09355 12.9556V20.1283C3.09355 22.5377 4.91268 24.4928 7.15818 24.4928H19.8426C22.0869 24.4928 23.9061 22.5377 23.9061 20.1283V12.9556C23.9061 10.545 22.0869 8.59113 19.8426 8.59113Z" stroke="#00B7FF" stroke-width="3" stroke-linecap="round" stroke-linejoin="round"/>
<path fill-rule="evenodd" clip-rule="evenodd" d="M9.92407 16.1125C9.92295 18.2307 11.5328 19.9635 13.5016 19.9622C15.4669 19.9598 17.0723 18.2343 17.0757 16.121C17.0791 13.9991 15.4748 12.27 13.5038 12.2676C11.5216 12.2652 9.90832 14.0233 9.92407 16.1125Z" stroke="#00B7FF" stroke-width="3" stroke-linecap="round" stroke-linejoin="round"/>
<path d="M19.0153 13.2857C18.9066 13.2738 18.7993 13.2433 18.6791 13.1913C18.5453 13.1275 18.4295 13.0463 18.3176 12.9242C18.1165 12.6944 18 12.3939 18 12.0839C18 11.9193 18.0314 11.7561 18.0926 11.6082C18.1539 11.4584 18.2266 11.3321 18.358 11.1947C18.4579 11.1012 18.5603 11.026 18.7002 10.9597C19.1152 10.7831 19.6089 10.8887 19.9174 11.2199C20.0099 11.3177 20.0877 11.4358 20.1309 11.5354L20.1565 11.606C20.2187 11.7561 20.25 11.9193 20.25 12.0839C20.25 12.4002 20.1351 12.6927 19.9217 12.9361C19.7372 13.1356 19.495 13.2582 19.2366 13.2857L19.125 13.2917L19.0153 13.2857Z" fill="#00B7FF"/>
</svg>
