<svg width="904" height="800" viewBox="0 0 904 800" fill="none" xmlns="http://www.w3.org/2000/svg">
<g filter="url(#filter0_d)">
<rect x="50" y="50" width="804" height="700" rx="15" fill="white"/>
</g>
<g filter="url(#filter1_d)">
<rect x="227" y="611" width="450" height="70" rx="10" fill="#74D7FF"/>
</g>
<path d="M417.28 657.61C417.28 657.85 417.43 658 417.67 658H420.49C420.73 658 420.88 657.85 420.88 657.61V645.58C420.88 645.28 420.97 645.13 421.09 645.13C421.21 645.13 421.33 645.19 421.45 645.34L432.94 657.7C433.09 657.88 433.36 658 433.6 658H434.02C434.26 658 434.41 657.85 434.41 657.61V637.39C434.41 637.15 434.26 637 434.02 637H431.2C430.96 637 430.81 637.15 430.81 637.39V649.36C430.81 649.66 430.72 649.81 430.6 649.81C430.48 649.81 430.39 649.75 430.24 649.6L418.75 637.27C418.6 637.12 418.33 637 418.12 637H417.67C417.43 637 417.28 637.15 417.28 637.39V657.61ZM437.76 657.61C437.76 657.85 437.91 658 438.15 658H450.96C451.2 658 451.35 657.85 451.35 657.61V655.03C451.35 654.79 451.2 654.64 450.96 654.64H442.2C441.69 654.64 441.36 654.31 441.36 653.8V650.02C441.36 649.51 441.69 649.18 442.2 649.18H448.8C449.04 649.18 449.19 649.03 449.19 648.79V646.21C449.19 645.97 449.04 645.82 448.8 645.82H442.2C441.69 645.82 441.36 645.49 441.36 644.98V641.2C441.36 640.69 441.69 640.36 442.2 640.36H450.96C451.2 640.36 451.35 640.21 451.35 639.97V637.39C451.35 637.15 451.2 637 450.96 637H438.15C437.91 637 437.76 637.15 437.76 637.39V657.61ZM453.119 637.33L459.029 646.78C459.299 647.2 459.299 647.8 459.029 648.22L453.119 657.67C452.999 657.88 453.059 658 453.299 658H456.719C456.959 658 457.199 657.88 457.319 657.67L461.129 651.58C461.279 651.37 461.429 651.25 461.579 651.25C461.729 651.25 461.879 651.37 462.029 651.58L465.839 657.67C465.959 657.88 466.199 658 466.439 658H469.859C470.069 658 470.159 657.88 470.039 657.67L464.129 648.22C463.859 647.8 463.859 647.2 464.129 646.78L470.039 637.33C470.159 637.12 470.069 637 469.859 637H466.439C466.199 637 465.959 637.12 465.839 637.33L462.029 643.42C461.879 643.63 461.729 643.75 461.579 643.75C461.429 643.75 461.279 643.63 461.129 643.42L457.319 637.33C457.199 637.12 456.959 637 456.719 637H453.299C453.059 637 452.999 637.12 453.119 637.33ZM471.61 640.36H477.19C477.7 640.36 478.03 640.69 478.03 641.2V657.61C478.03 657.85 478.21 658 478.42 658H481.24C481.48 658 481.63 657.85 481.63 657.61V641.2C481.63 640.69 481.99 640.36 482.5 640.36H488.11C488.35 640.36 488.5 640.21 488.5 639.97V637.39C488.5 637.15 488.35 637 488.11 637H471.61C471.37 637 471.22 637.15 471.22 637.39V639.97C471.22 640.21 471.37 640.36 471.61 640.36Z" fill="white"/>
<defs>
<filter id="filter0_d" x="0" y="0" width="904" height="800" filterUnits="userSpaceOnUse" color-interpolation-filters="sRGB">
<feFlood flood-opacity="0" result="BackgroundImageFix"/>
<feColorMatrix in="SourceAlpha" type="matrix" values="0 0 0 0 0 0 0 0 0 0 0 0 0 0 0 0 0 0 127 0"/>
<feOffset/>
<feGaussianBlur stdDeviation="25"/>
<feColorMatrix type="matrix" values="0 0 0 0 0.75 0 0 0 0 0.954861 0 0 0 0 1 0 0 0 0.5 0"/>
<feBlend mode="normal" in2="BackgroundImageFix" result="effect1_dropShadow"/>
<feBlend mode="normal" in="SourceGraphic" in2="effect1_dropShadow" result="shape"/>
</filter>
<filter id="filter1_d" x="192" y="576" width="520" height="140" filterUnits="userSpaceOnUse" color-interpolation-filters="sRGB">
<feFlood flood-opacity="0" result="BackgroundImageFix"/>
<feColorMatrix in="SourceAlpha" type="matrix" values="0 0 0 0 0 0 0 0 0 0 0 0 0 0 0 0 0 0 127 0"/>
<feOffset/>
<feGaussianBlur stdDeviation="17.5"/>
<feColorMatrix type="matrix" values="0 0 0 0 0.454902 0 0 0 0 0.843137 0 0 0 0 1 0 0 0 1 0"/>
<feBlend mode="normal" in2="BackgroundImageFix" result="effect1_dropShadow"/>
<feBlend mode="normal" in="SourceGraphic" in2="effect1_dropShadow" result="shape"/>
</filter>
</defs>
</svg>
