<svg width="123" height="35" viewBox="0 0 123 35" fill="none" xmlns="http://www.w3.org/2000/svg">
<path d="M6.56426 0.925H19.3893C19.9893 0.925 20.4726 1.04167 20.8393 1.275C21.2059 1.50833 21.4976 1.80833 21.7143 2.175C21.9309 2.525 22.0726 2.925 22.1393 3.375C22.2226 3.825 22.2643 4.275 22.2643 4.725V5.975C22.2643 6.20833 22.1976 6.475 22.0643 6.775C21.9309 7.075 21.7476 7.35833 21.5143 7.625C21.2809 7.875 21.0059 8.09167 20.6893 8.275C20.3893 8.45833 20.0726 8.55 19.7393 8.55H17.9393L22.2643 13H18.1393L13.8893 8.55H9.76426V13H6.56426V0.925ZM9.76426 4.05V5.425H18.7643L19.1143 5.125V4.225L18.8143 4.05H9.76426ZM23.4359 13L29.9109 2.9C30.0609 2.68333 30.2359 2.45833 30.4359 2.225C30.6526 1.975 30.8859 1.75833 31.1359 1.575C31.3859 1.39167 31.6526 1.24167 31.9359 1.125C32.2193 0.991666 32.5109 0.925 32.8109 0.925H39.9859V13H36.8609V9.975H29.1859L27.1359 13H23.4359ZM36.8609 4.1H33.0859C33.0359 4.1 32.9109 4.225 32.7109 4.475C32.5276 4.70833 32.3276 4.98333 32.1109 5.3C31.8943 5.6 31.6943 5.9 31.5109 6.2C31.3276 6.48333 31.2109 6.68333 31.1609 6.8H36.8609V4.1ZM41.5203 0.925H44.7203V13H41.5203V0.925ZM46.242 0.925H49.392L58.842 8.75V0.925H61.942V13H58.742L49.442 5.175V13H46.242V0.925ZM66.6637 5.4H76.0137V4.225L75.7137 4.05H66.6637V5.4ZM76.2887 0.925C76.872 0.925 77.347 1.03333 77.7137 1.25C78.097 1.46667 78.3887 1.75 78.5887 2.1C78.8053 2.45 78.9553 2.84167 79.0387 3.275C79.122 3.70833 79.1637 4.13333 79.1637 4.55V5.625C79.1637 5.675 79.1387 5.75833 79.0887 5.875C79.0553 5.99167 79.0053 6.125 78.9387 6.275C78.872 6.40833 78.797 6.54167 78.7137 6.675C78.6303 6.80833 78.5553 6.9 78.4887 6.95L78.5387 7.025C78.6553 7.19167 78.7887 7.40833 78.9387 7.675C79.0887 7.94167 79.1637 8.16667 79.1637 8.35V10.475C79.1637 10.7583 79.122 11.05 79.0387 11.35C78.9553 11.65 78.8137 11.925 78.6137 12.175C78.4137 12.4083 78.147 12.6083 77.8137 12.775C77.497 12.925 77.1053 13 76.6387 13H63.4637V0.925H76.2887ZM66.6637 9.875H75.7137L76.0137 9.7V8.55H66.6637V9.875ZM80.6854 0.925H93.8604C94.1104 0.925 94.377 1 94.6604 1.15C94.9604 1.3 95.2354 1.49167 95.4854 1.725C95.752 1.95833 95.9687 2.21667 96.1354 2.5C96.302 2.76667 96.3854 3.03333 96.3854 3.3V10.475C96.3854 10.8083 96.2854 11.1333 96.0854 11.45C95.902 11.75 95.6687 12.0167 95.3854 12.25C95.102 12.4833 94.7854 12.6667 94.4354 12.8C94.0854 12.9333 93.7604 13 93.4604 13H83.6104C83.277 13 82.9354 12.925 82.5854 12.775C82.252 12.625 81.9437 12.4333 81.6604 12.2C81.377 11.95 81.1437 11.6667 80.9604 11.35C80.777 11.0333 80.6854 10.7 80.6854 10.35V0.925ZM83.8854 9.6L84.1604 9.875H93.1854V4.125H83.8854V9.6ZM113.076 0.925L110.701 7.35L108.251 0.925H105.401L102.751 7.375L100.476 0.925H96.7514L101.326 13H104.051L106.726 6.275L109.276 13H112.026L116.776 0.925H113.076ZM12.8777 31.875V30.75L12.6277 30.55H2.92773C2.62773 30.55 2.33607 30.4667 2.05273 30.3C1.7694 30.1167 1.51107 29.9 1.27773 29.65C1.0444 29.3833 0.844401 29.1 0.677734 28.8C0.527734 28.5 0.427734 28.225 0.377734 27.975V26.725C0.377734 26.275 0.427734 25.825 0.527734 25.375C0.644401 24.925 0.819401 24.525 1.05273 24.175C1.28607 23.8083 1.58607 23.5083 1.95273 23.275C2.3194 23.0417 2.7694 22.925 3.30273 22.925H16.1027L16.0777 23.3C16.0444 23.5167 16.0027 23.7833 15.9527 24.1C15.9194 24.4 15.8777 24.7 15.8277 25C15.7944 25.2833 15.7611 25.5333 15.7277 25.75C15.6944 25.95 15.6777 26.05 15.6777 26.05H3.85273L3.57773 26.225V27.4H13.1527C13.4527 27.4 13.7694 27.475 14.1027 27.625C14.4527 27.775 14.7694 27.975 15.0527 28.225C15.3527 28.475 15.5944 28.75 15.7777 29.05C15.9777 29.35 16.0777 29.65 16.0777 29.95V32.475C16.0777 32.7583 15.9944 33.05 15.8277 33.35C15.6611 33.65 15.4527 33.925 15.2027 34.175C14.9527 34.4083 14.6777 34.6083 14.3777 34.775C14.0944 34.925 13.8194 35 13.5527 35H0.877734C0.877734 34.85 0.894401 34.6083 0.927735 34.275C0.977734 33.925 1.02773 33.575 1.07773 33.225C1.12773 32.875 1.1694 32.5667 1.20273 32.3C1.25273 32.0167 1.28607 31.875 1.30273 31.875H12.8777ZM17.6238 22.925H20.8238V35H17.6238V22.925ZM37.5705 22.925H33.4705L29.7955 27.425L25.8955 22.925H22.0205L26.9455 28.95L21.9955 35H25.8705L29.7705 30.5L33.4455 35H37.5455L32.5205 28.975L37.5705 22.925ZM62.868 31.875V30.75L62.618 30.55H52.918C52.618 30.55 52.3263 30.4667 52.043 30.3C51.7596 30.1167 51.5013 29.9 51.268 29.65C51.0346 29.3833 50.8346 29.1 50.668 28.8C50.518 28.5 50.418 28.225 50.368 27.975V26.725C50.368 26.275 50.418 25.825 50.518 25.375C50.6346 24.925 50.8096 24.525 51.043 24.175C51.2763 23.8083 51.5763 23.5083 51.943 23.275C52.3096 23.0417 52.7596 22.925 53.293 22.925H66.093L66.068 23.3C66.0346 23.5167 65.993 23.7833 65.943 24.1C65.9096 24.4 65.868 24.7 65.818 25C65.7846 25.2833 65.7513 25.5333 65.718 25.75C65.6846 25.95 65.668 26.05 65.668 26.05H53.843L53.568 26.225V27.4H63.143C63.443 27.4 63.7596 27.475 64.093 27.625C64.443 27.775 64.7596 27.975 65.043 28.225C65.343 28.475 65.5846 28.75 65.768 29.05C65.968 29.35 66.068 29.65 66.068 29.95V32.475C66.068 32.7583 65.9846 33.05 65.818 33.35C65.6513 33.65 65.443 33.925 65.193 34.175C64.943 34.4083 64.668 34.6083 64.368 34.775C64.0846 34.925 63.8096 35 63.543 35H50.868C50.868 34.85 50.8846 34.6083 50.918 34.275C50.968 33.925 51.018 33.575 51.068 33.225C51.118 32.875 51.1596 32.5667 51.193 32.3C51.243 32.0167 51.2763 31.875 51.293 31.875H62.868ZM67.6141 22.925H70.8141V35H67.6141V22.925ZM72.3357 22.925V32.075C72.3357 32.4417 72.4191 32.8 72.5857 33.15C72.7691 33.5 72.9941 33.8167 73.2607 34.1C73.5441 34.3667 73.8607 34.5833 74.2107 34.75C74.5607 34.9167 74.9107 35 75.2607 35H88.0857C88.0857 34.8333 88.0691 34.5833 88.0357 34.25C88.0024 33.9 87.9607 33.55 87.9107 33.2C87.8607 32.85 87.8107 32.5417 87.7607 32.275C87.7107 32.0083 87.6691 31.875 87.6357 31.875H75.7357L75.5357 31.525V30.55H86.6857C86.7024 30.55 86.7274 30.4167 86.7607 30.15C86.8107 29.8833 86.8607 29.575 86.9107 29.225C86.9607 28.8583 87.0024 28.5083 87.0357 28.175C87.0857 27.825 87.1107 27.575 87.1107 27.425H75.5357V26.05H87.6357C87.6524 26.05 87.6857 25.9167 87.7357 25.65C87.7857 25.3833 87.8357 25.075 87.8857 24.725C87.9357 24.375 87.9774 24.025 88.0107 23.675C88.0607 23.325 88.0857 23.075 88.0857 22.925H72.3357ZM105.356 27.925L104.906 27.425H97.2563V30.55H102.156V31.875H93.0063L92.8063 31.525V26.05H104.906C104.923 26.05 104.956 25.9167 105.006 25.65C105.056 25.3833 105.106 25.075 105.156 24.725C105.206 24.375 105.248 24.025 105.281 23.675C105.331 23.325 105.356 23.075 105.356 22.925H89.6063V32.075C89.6063 32.4417 89.6896 32.8 89.8563 33.15C90.0396 33.5 90.2646 33.8167 90.5313 34.1C90.8146 34.3667 91.1313 34.5833 91.4813 34.75C91.8313 34.9167 92.1813 35 92.5313 35H105.356V27.925ZM106.877 22.925V32.075C106.877 32.4417 106.96 32.8 107.127 33.15C107.31 33.5 107.535 33.8167 107.802 34.1C108.085 34.3667 108.402 34.5833 108.752 34.75C109.102 34.9167 109.452 35 109.802 35H122.627C122.627 34.8333 122.61 34.5833 122.577 34.25C122.543 33.9 122.502 33.55 122.452 33.2C122.402 32.85 122.352 32.5417 122.302 32.275C122.252 32.0083 122.21 31.875 122.177 31.875H110.277L110.077 31.525V30.55H121.227C121.243 30.55 121.268 30.4167 121.302 30.15C121.352 29.8833 121.402 29.575 121.452 29.225C121.502 28.8583 121.543 28.5083 121.577 28.175C121.627 27.825 121.652 27.575 121.652 27.425H110.077V26.05H122.177C122.193 26.05 122.227 25.9167 122.277 25.65C122.327 25.3833 122.377 25.075 122.427 24.725C122.477 24.375 122.518 24.025 122.552 23.675C122.602 23.325 122.627 23.075 122.627 22.925H106.877Z" fill="white"/>
</svg>
