<svg width="25" height="25" viewBox="0 0 25 25" fill="none" xmlns="http://www.w3.org/2000/svg">
<path d="M19.7917 7.29159H16.6667V6.24992C16.6667 5.14485 16.2277 4.08504 15.4463 3.30364C14.6649 2.52224 13.6051 2.08325 12.5 2.08325C11.3949 2.08325 10.3351 2.52224 9.55373 3.30364C8.77232 4.08504 8.33334 5.14485 8.33334 6.24992V7.29159H5.20834C4.93207 7.29159 4.66712 7.40133 4.47177 7.59668C4.27642 7.79203 4.16667 8.05699 4.16667 8.33325V19.7916C4.16667 20.6204 4.49591 21.4152 5.08196 22.0013C5.66801 22.5873 6.46287 22.9166 7.29167 22.9166H17.7083C18.5371 22.9166 19.332 22.5873 19.918 22.0013C20.5041 21.4152 20.8333 20.6204 20.8333 19.7916V8.33325C20.8333 8.05699 20.7236 7.79203 20.5282 7.59668C20.3329 7.40133 20.0679 7.29159 19.7917 7.29159ZM10.4167 6.24992C10.4167 5.69738 10.6362 5.16748 11.0269 4.77678C11.4176 4.38608 11.9475 4.16659 12.5 4.16659C13.0525 4.16659 13.5824 4.38608 13.9731 4.77678C14.3638 5.16748 14.5833 5.69738 14.5833 6.24992V7.29159H10.4167V6.24992ZM18.75 19.7916C18.75 20.0679 18.6403 20.3328 18.4449 20.5282C18.2496 20.7235 17.9846 20.8333 17.7083 20.8333H7.29167C7.0154 20.8333 6.75045 20.7235 6.5551 20.5282C6.35975 20.3328 6.25 20.0679 6.25 19.7916V9.37492H8.33334V10.4166C8.33334 10.6929 8.44308 10.9578 8.63843 11.1532C8.83379 11.3485 9.09874 11.4583 9.375 11.4583C9.65127 11.4583 9.91622 11.3485 10.1116 11.1532C10.3069 10.9578 10.4167 10.6929 10.4167 10.4166V9.37492H14.5833V10.4166C14.5833 10.6929 14.6931 10.9578 14.8884 11.1532C15.0838 11.3485 15.3487 11.4583 15.625 11.4583C15.9013 11.4583 16.1662 11.3485 16.3616 11.1532C16.5569 10.9578 16.6667 10.6929 16.6667 10.4166V9.37492H18.75V19.7916Z" fill="black" stroke="black" stroke-width="0.5"/>
</svg>
