<svg width="24" height="25" viewBox="0 0 24 25" fill="none" xmlns="http://www.w3.org/2000/svg">
<path d="M12.8142 20.4902L12.1158 20.217L12.8142 20.4902ZM4.27909 15.1378L3.54815 15.3058L4.27909 15.1378ZM4.27571 10.2264L3.54477 10.0584L4.27571 10.2264ZM20.7476 10.4474L21.4786 10.2794L20.7476 10.4474ZM20.7476 14.9021L20.0167 14.7341L20.7476 14.9021ZM9.81593 21.8233L10.1108 21.1337L10.1108 21.1337L9.81593 21.8233ZM10.1895 4.27141L10.3641 5.00081H10.3641L10.1895 4.27141ZM14.783 4.27141L14.6084 5.00081L14.783 4.27141ZM9.69777 21.7728L9.40294 22.4624H9.40294L9.69777 21.7728ZM15.1641 4.36264L15.3387 3.63325L15.1641 4.36264ZM20.6588 10.0609L19.9279 10.2289V10.2289L20.6588 10.0609ZM9.96648 4.32481L9.79188 3.59541V3.59541L9.96648 4.32481ZM9.19628 9.30793C8.78207 9.30793 8.44628 9.64372 8.44628 10.0579C8.44628 10.4721 8.78207 10.8079 9.19628 10.8079V9.30793ZM15.2279 10.8079C15.6422 10.8079 15.9779 10.4721 15.9779 10.0579C15.9779 9.64372 15.6422 9.30793 15.2279 9.30793V10.8079ZM9.19628 12.7641C8.78207 12.7641 8.44628 13.0999 8.44628 13.5141C8.44628 13.9283 8.78207 14.2641 9.19628 14.2641V12.7641ZM13.0346 14.2641C13.4488 14.2641 13.7846 13.9283 13.7846 13.5141C13.7846 13.0999 13.4488 12.7641 13.0346 12.7641V14.2641ZM10.1411 5.0542L10.3641 5.00081L10.0149 3.54202L9.79188 3.59541L10.1411 5.0542ZM14.6084 5.00081L14.9895 5.09204L15.3387 3.63325L14.9576 3.54202L14.6084 5.00081ZM10.1108 21.1337L9.9926 21.0832L9.40294 22.4624L9.5211 22.5129L10.1108 21.1337ZM19.9279 10.2289L20.0167 10.6154L21.4786 10.2794L21.3897 9.89287L19.9279 10.2289ZM14.6721 19.1768H13.6107V20.6768H14.6721V19.1768ZM13.6107 19.1768C12.9324 19.1768 12.3529 19.6108 12.1158 20.217L13.5127 20.7634C13.5406 20.6921 13.592 20.6768 13.6107 20.6768V19.1768ZM5.01003 14.9698C4.66535 13.4702 4.66244 11.8919 5.00665 10.3944L3.54477 10.0584C3.14926 11.7791 3.15311 13.5871 3.54815 15.3058L5.01003 14.9698ZM20.0167 10.6154C20.3278 11.9687 20.3278 13.3808 20.0167 14.7341L21.4786 15.0701C21.8405 13.4957 21.8405 11.8538 21.4786 10.2794L20.0167 10.6154ZM9.5211 22.5129C11.1131 23.1936 12.8891 22.3576 13.5127 20.7634L12.1158 20.217C11.7766 21.084 10.865 21.4561 10.1108 21.1337L9.5211 22.5129ZM10.3641 5.00081C11.7611 4.6664 13.2114 4.6664 14.6084 5.00081L14.9576 3.54202C13.3311 3.15266 11.6415 3.15266 10.0149 3.54202L10.3641 5.00081ZM9.9926 21.0832C7.51453 20.0237 5.64644 17.7384 5.01003 14.9698L3.54815 15.3058C4.28571 18.5145 6.45924 21.2039 9.40294 22.4624L9.9926 21.0832ZM20.0167 14.7341C19.412 17.3647 17.1859 19.1768 14.6721 19.1768V20.6768C17.9318 20.6768 20.7281 18.3351 21.4786 15.0701L20.0167 14.7341ZM14.9895 5.09204C17.41 5.67142 19.3349 7.64932 19.9279 10.2289L21.3897 9.89287C20.6765 6.78984 18.3441 4.35266 15.3387 3.63325L14.9895 5.09204ZM9.79188 3.59541C6.68969 4.338 4.28134 6.85397 3.54477 10.0584L5.00665 10.3944C5.6229 7.71346 7.62384 5.65676 10.1411 5.0542L9.79188 3.59541ZM9.19628 10.8079H15.2279V9.30793H9.19628V10.8079ZM9.19628 14.2641H13.0346V12.7641H9.19628V14.2641Z" fill="#8F8F8F"/>
</svg>
