<svg width="30" height="30" viewBox="0 0 30 30" fill="none" xmlns="http://www.w3.org/2000/svg">
<path fill-rule="evenodd" clip-rule="evenodd" d="M26.9169 19.0123L25.2411 11.891C24.7898 9.97258 23.0215 8 20.3287 8H8.67159C6.70073 8 4.37567 9.26972 3.75902 11.891L2.08323 19.0123C1.62832 20.9454 3.09565 22.7999 5.08406 22.7999C5.92901 22.7999 6.72381 22.3497 7.15811 21.6255L8.449 19.4744C8.66968 19.1063 9.07328 18.8778 9.50243 18.8778H19.4975C19.9267 18.8778 20.3304 19.1065 20.5511 19.4746L21.8418 21.6253C22.2763 22.3497 23.0711 22.7999 23.917 22.7999C25.9024 22.7999 27.3722 20.9473 26.9169 19.0123Z" fill="black"/>
</svg>
