<svg width="18" height="18" viewBox="0 0 18 18" fill="none" xmlns="http://www.w3.org/2000/svg">
<path d="M15.25 5.5C15.25 5.91421 15.5858 6.25 16 6.25C16.4142 6.25 16.75 5.91421 16.75 5.5H15.25ZM12.5 1.25C12.0858 1.25 11.75 1.58579 11.75 2C11.75 2.41421 12.0858 2.75 12.5 2.75V1.25ZM2.75 12.5C2.75 12.0858 2.41421 11.75 2 11.75C1.58579 11.75 1.25 12.0858 1.25 12.5H2.75ZM5.5 16.75C5.91421 16.75 6.25 16.4142 6.25 16C6.25 15.5858 5.91421 15.25 5.5 15.25V16.75ZM5.5 2.75C5.91421 2.75 6.25 2.41421 6.25 2C6.25 1.58579 5.91421 1.25 5.5 1.25V2.75ZM1.25 5.5C1.25 5.91421 1.58579 6.25 2 6.25C2.41421 6.25 2.75 5.91421 2.75 5.5H1.25ZM12.5 15.25C12.0858 15.25 11.75 15.5858 11.75 16C11.75 16.4142 12.0858 16.75 12.5 16.75L12.5 15.25ZM16.75 12.5C16.75 12.0858 16.4142 11.75 16 11.75C15.5858 11.75 15.25 12.0858 15.25 12.5L16.75 12.5ZM9.75 4.15385C9.75 3.73963 9.41421 3.40385 9 3.40385C8.58579 3.40385 8.25 3.73963 8.25 4.15385H9.75ZM8.25 6.30769C8.25 6.72191 8.58579 7.05769 9 7.05769C9.41421 7.05769 9.75 6.72191 9.75 6.30769H8.25ZM6.84615 9.21154C7.26037 9.21154 7.59615 8.87575 7.59615 8.46154C7.59615 8.04733 7.26037 7.71154 6.84615 7.71154V9.21154ZM4.69231 7.71154C4.27809 7.71154 3.94231 8.04733 3.94231 8.46154C3.94231 8.87575 4.27809 9.21154 4.69231 9.21154V7.71154ZM9.75 10.6154C9.75 10.2012 9.41421 9.86539 9 9.86539C8.58579 9.86539 8.25 10.2012 8.25 10.6154H9.75ZM8.25 12.7692C8.25 13.1834 8.58579 13.5192 9 13.5192C9.41421 13.5192 9.75 13.1834 9.75 12.7692H8.25ZM11.1538 7.71154C10.7396 7.71154 10.4038 8.04733 10.4038 8.46154C10.4038 8.87575 10.7396 9.21154 11.1538 9.21154V7.71154ZM13.3077 9.21154C13.7219 9.21154 14.0577 8.87575 14.0577 8.46154C14.0577 8.04733 13.7219 7.71154 13.3077 7.71154V9.21154ZM16.75 5.5C16.75 3.15279 14.8472 1.25 12.5 1.25V2.75C14.0188 2.75 15.25 3.98122 15.25 5.5H16.75ZM1.25 12.5C1.25 14.8472 3.15279 16.75 5.5 16.75V15.25C3.98122 15.25 2.75 14.0188 2.75 12.5H1.25ZM5.5 1.25C3.15279 1.25 1.25 3.15279 1.25 5.5H2.75C2.75 3.98122 3.98122 2.75 5.5 2.75V1.25ZM12.5 16.75C14.8472 16.75 16.75 14.8472 16.75 12.5L15.25 12.5C15.25 14.0188 14.0188 15.25 12.5 15.25L12.5 16.75ZM8.25 4.15385V6.30769H9.75V4.15385H8.25ZM6.84615 7.71154H4.69231V9.21154H6.84615V7.71154ZM8.25 10.6154V12.7692H9.75V10.6154H8.25ZM11.1538 9.21154H13.3077V7.71154H11.1538V9.21154Z" fill="#FFF5E9"/>
</svg>
