<svg width="17" height="17" viewBox="0 0 17 17" fill="none" xmlns="http://www.w3.org/2000/svg">
<path d="M11.3477 7.73032C12.6375 7.73032 13.683 6.68482 13.683 5.39495C13.683 4.10578 12.6375 3.05957 11.3477 3.05957" stroke="#FFF5E9" stroke-width="1.5" stroke-linecap="round" stroke-linejoin="round"/>
<path d="M12.4214 10.2681C12.8067 10.2943 13.1892 10.3495 13.5668 10.4331C14.0902 10.5372 14.7206 10.7519 14.9445 11.2215C15.0876 11.5225 15.0876 11.8731 14.9445 12.1742C14.7213 12.6438 14.0902 12.8584 13.5668 12.9661" stroke="#FFF5E9" stroke-width="1.5" stroke-linecap="round" stroke-linejoin="round"/>
<path fill-rule="evenodd" clip-rule="evenodd" d="M6.79395 10.771C9.4077 10.771 11.6404 11.167 11.6404 12.7487C11.6404 14.3311 9.42187 14.7405 6.79395 14.7405C4.1802 14.7405 1.94824 14.3452 1.94824 12.7628C1.94824 11.1804 4.16603 10.771 6.79395 10.771Z" stroke="#FFF5E9" stroke-width="1.5" stroke-linecap="round" stroke-linejoin="round"/>
<path fill-rule="evenodd" clip-rule="evenodd" d="M6.79381 8.51313C5.06973 8.51313 3.68848 7.13117 3.68848 5.40709C3.68848 3.68372 5.06973 2.30176 6.79381 2.30176C8.51789 2.30176 9.89985 3.68372 9.89985 5.40709C9.89985 7.13117 8.51789 8.51313 6.79381 8.51313Z" stroke="#FFF5E9" stroke-width="1.5" stroke-linecap="round" stroke-linejoin="round"/>
</svg>
