<svg width="24" height="24" viewBox="0 0 24 24" fill="none" xmlns="http://www.w3.org/2000/svg">
<path d="M20.25 7.5C20.25 7.91421 20.5858 8.25 21 8.25C21.4142 8.25 21.75 7.91421 21.75 7.5H20.25ZM16.5 2.25C16.0858 2.25 15.75 2.58579 15.75 3C15.75 3.41421 16.0858 3.75 16.5 3.75V2.25ZM3.75 16.5C3.75 16.0858 3.41421 15.75 3 15.75C2.58579 15.75 2.25 16.0858 2.25 16.5H3.75ZM7.5 21.75C7.91421 21.75 8.25 21.4142 8.25 21C8.25 20.5858 7.91421 20.25 7.5 20.25V21.75ZM7.5 3.75C7.91421 3.75 8.25 3.41421 8.25 3C8.25 2.58579 7.91421 2.25 7.5 2.25V3.75ZM2.25 7.5C2.25 7.91421 2.58579 8.25 3 8.25C3.41421 8.25 3.75 7.91421 3.75 7.5H2.25ZM16.5 20.25C16.0858 20.25 15.75 20.5858 15.75 21C15.75 21.4142 16.0858 21.75 16.5 21.75V20.25ZM21.75 16.5C21.75 16.0858 21.4142 15.75 21 15.75C20.5858 15.75 20.25 16.0858 20.25 16.5H21.75ZM21.75 7.5C21.75 4.6005 19.3995 2.25 16.5 2.25V3.75C18.5711 3.75 20.25 5.42893 20.25 7.5H21.75ZM2.25 16.5C2.25 19.3995 4.6005 21.75 7.5 21.75V20.25C5.42893 20.25 3.75 18.5711 3.75 16.5H2.25ZM7.5 2.25C4.60051 2.25 2.25 4.6005 2.25 7.5H3.75C3.75 5.42893 5.42893 3.75 7.5 3.75V2.25ZM16.5 21.75C19.3995 21.75 21.75 19.3995 21.75 16.5H20.25C20.25 18.5711 18.5711 20.25 16.5 20.25V21.75Z" fill="#8F8F8F"/>
<path d="M8 15.9508C8 14.6102 8.94296 13.4683 10.2245 13.257L10.3399 13.238C11.3661 13.0688 12.4117 13.0688 13.4379 13.238L13.5533 13.257C14.8348 13.4683 15.7778 14.6102 15.7778 15.9508C15.7778 16.5303 15.3231 17 14.7622 17H9.01563C8.45471 17 8 16.5303 8 15.9508Z" stroke="#8F8F8F"/>
<path d="M14.1574 9.1875C14.1574 10.3956 13.1418 11.375 11.8889 11.375C10.636 11.375 9.62038 10.3956 9.62038 9.1875C9.62038 7.97938 10.636 7 11.8889 7C13.1418 7 14.1574 7.97938 14.1574 9.1875Z" stroke="#8F8F8F"/>
</svg>
