<svg width="34" height="34" viewBox="0 0 34 34" fill="none" xmlns="http://www.w3.org/2000/svg">
<g clip-path="url(#clip0)">
<path d="M8.79683 14.2966L8.50621 13.3397L8.50621 13.3397L8.79683 14.2966ZM18.9108 11.2246L19.2015 12.1815L18.9108 11.2246ZM22.731 15.0502L23.6874 15.3424L22.731 15.0502ZM19.6473 25.1455L18.6909 24.8534L18.6909 24.8534L19.6473 25.1455ZM14.2787 25.3849L13.3979 25.8584L14.2787 25.3849ZM8.55034 19.6649L8.07591 20.5452L8.55034 19.6649ZM15.0939 20.2845C15.4844 19.894 15.4844 19.2608 15.0939 18.8703C14.7034 18.4798 14.0702 18.4798 13.6797 18.8703L15.0939 20.2845ZM9.08746 15.2534L19.2015 12.1815L18.6202 10.2678L8.50621 13.3397L9.08746 15.2534ZM21.7746 14.7581L18.6909 24.8534L20.6037 25.4377L23.6874 15.3424L21.7746 14.7581ZM15.1594 24.9114L13.1668 21.2047L11.4052 22.1517L13.3979 25.8584L15.1594 24.9114ZM12.7604 20.7979L9.02477 18.7846L8.07591 20.5452L11.8115 22.5585L12.7604 20.7979ZM12.9931 22.3853L15.0939 20.2845L13.6797 18.8703L11.5789 20.9711L12.9931 22.3853ZM18.6909 24.8534C18.4577 25.6169 17.833 26.0245 17.1121 26.0567C16.3823 26.0892 15.5972 25.7256 15.1594 24.9114L13.3979 25.8584C14.2195 27.3868 15.7473 28.1195 17.2012 28.0547C18.6641 27.9895 20.094 27.1061 20.6037 25.4377L18.6909 24.8534ZM19.2015 12.1815C20.7017 11.7258 22.2325 13.2592 21.7746 14.7581L23.6874 15.3424C24.6129 12.3125 21.6514 9.34712 18.6202 10.2678L19.2015 12.1815ZM8.50621 13.3397C6.83656 13.8469 5.95089 15.2758 5.88372 16.7388C5.81695 18.1929 6.54799 19.7217 8.07591 20.5452L9.02477 18.7846C8.21073 18.3459 7.8481 17.5602 7.88161 16.8305C7.91471 16.1097 8.32325 15.4855 9.08746 15.2534L8.50621 13.3397Z" fill="white"/>
</g>
<defs>
<clipPath id="clip0">
<rect width="24" height="24" fill="white" transform="translate(0 16.9707) rotate(-45)"/>
</clipPath>
</defs>
</svg>
