<svg width="30" height="30" viewBox="0 0 30 30" fill="none" xmlns="http://www.w3.org/2000/svg">
<path d="M7 22.9016C7 20.2204 8.88592 17.9366 11.4489 17.5141L11.6798 17.476C13.7321 17.1376 15.8234 17.1376 17.8758 17.476L18.1066 17.5141C20.6696 17.9366 22.5556 20.2204 22.5556 22.9016C22.5556 24.0605 21.6461 25 20.5243 25H9.03125C7.90942 25 7 24.0605 7 22.9016Z" fill="black"/>
<path d="M19.3148 9.375C19.3148 11.7912 17.2835 13.75 14.7778 13.75C12.2721 13.75 10.2408 11.7912 10.2408 9.375C10.2408 6.95875 12.2721 5 14.7778 5C17.2835 5 19.3148 6.95875 19.3148 9.375Z" fill="black"/>
<path d="M7 22.9016C7 20.2204 8.88592 17.9366 11.4489 17.5141L11.6798 17.476C13.7321 17.1376 15.8234 17.1376 17.8758 17.476L18.1066 17.5141C20.6696 17.9366 22.5556 20.2204 22.5556 22.9016C22.5556 24.0605 21.6461 25 20.5243 25H9.03125C7.90942 25 7 24.0605 7 22.9016Z" stroke="black" stroke-width="1.5"/>
<path d="M19.3148 9.375C19.3148 11.7912 17.2835 13.75 14.7778 13.75C12.2721 13.75 10.2408 11.7912 10.2408 9.375C10.2408 6.95875 12.2721 5 14.7778 5C17.2835 5 19.3148 6.95875 19.3148 9.375Z" stroke="black" stroke-width="1.5"/>
</svg>
